<svg xmlns="http://www.w3.org/2000/svg" version="1.1" xmlns:xlink="http://www.w3.org/1999/xlink" xmlns:svgjs="http://svgjs.dev/svgjs" width="1440" height="900" preserveAspectRatio="none" viewBox="0 0 1440 900"><g mask="url(&quot;#SvgjsMask1359&quot;)" fill="none"><rect width="1440" height="900" x="0" y="0" fill="rgba(91, 14, 45, 1)"></rect><path d="M45.67 -48.08L110.62 -10.58L110.62 64.42L45.67 101.92L-19.28 64.42L-19.28 -10.58zM110.62 514.42L175.58 551.92L175.58 626.92L110.62 664.42L45.67 626.92L45.67 551.92zM45.67 626.92L110.62 664.42L110.62 739.42L45.67 776.92L-19.28 739.42L-19.28 664.42zM45.67 851.92L110.62 889.42L110.62 964.42L45.67 1001.92L-19.28 964.42L-19.28 889.42zM175.58 -48.08L240.53 -10.58L240.53 64.42L175.58 101.92L110.62 64.42L110.62 -10.58zM240.53 64.42L305.49 101.92L305.49 176.92L240.53 214.42L175.58 176.92L175.58 101.92zM175.58 176.92L240.53 214.42L240.53 289.42L175.58 326.92L110.62 289.42L110.62 214.42zM240.53 289.42L305.49 326.92L305.49 401.92L240.53 439.42L175.58 401.92L175.58 326.92zM240.53 514.42L305.49 551.92L305.49 626.92L240.53 664.42L175.58 626.92L175.58 551.92zM240.53 739.42L305.49 776.92L305.49 851.92L240.53 889.42L175.58 851.92L175.58 776.92zM370.44 64.42L435.39 101.92L435.39 176.92L370.44 214.42L305.49 176.92L305.49 101.92zM305.49 176.92L370.44 214.42L370.44 289.42L305.49 326.92L240.53 289.42L240.53 214.42zM305.49 401.92L370.44 439.42L370.44 514.42L305.49 551.92L240.53 514.42L240.53 439.42zM370.44 739.42L435.39 776.92L435.39 851.92L370.44 889.42L305.49 851.92L305.49 776.92zM435.39 -48.08L500.35 -10.58L500.35 64.42L435.39 101.92L370.44 64.42L370.44 -10.58zM435.39 176.92L500.35 214.42L500.35 289.42L435.39 326.92L370.44 289.42L370.44 214.42zM500.35 289.42L565.3 326.92L565.3 401.92L500.35 439.42L435.39 401.92L435.39 326.92zM435.39 401.92L500.35 439.42L500.35 514.42L435.39 551.92L370.44 514.42L370.44 439.42zM500.35 514.42L565.3 551.92L565.3 626.92L500.35 664.42L435.39 626.92L435.39 551.92zM500.35 739.42L565.3 776.92L565.3 851.92L500.35 889.42L435.39 851.92L435.39 776.92zM435.39 851.92L500.35 889.42L500.35 964.42L435.39 1001.92L370.44 964.42L370.44 889.42zM630.25 64.42L695.21 101.92L695.21 176.92L630.25 214.42L565.3 176.92L565.3 101.92zM630.25 289.42L695.21 326.92L695.21 401.92L630.25 439.42L565.3 401.92L565.3 326.92zM565.3 401.92L630.25 439.42L630.25 514.42L565.3 551.92L500.35 514.42L500.35 439.42zM565.3 626.92L630.25 664.42L630.25 739.42L565.3 776.92L500.35 739.42L500.35 664.42zM630.25 739.42L695.21 776.92L695.21 851.92L630.25 889.42L565.3 851.92L565.3 776.92zM695.21 -48.08L760.16 -10.58L760.16 64.42L695.21 101.92L630.25 64.42L630.25 -10.58zM760.16 64.42L825.12 101.92L825.12 176.92L760.16 214.42L695.21 176.92L695.21 101.92zM695.21 176.92L760.16 214.42L760.16 289.42L695.21 326.92L630.25 289.42L630.25 214.42zM760.16 289.42L825.12 326.92L825.12 401.92L760.16 439.42L695.21 401.92L695.21 326.92zM695.21 626.92L760.16 664.42L760.16 739.42L695.21 776.92L630.25 739.42L630.25 664.42zM890.07 64.42L955.02 101.92L955.02 176.92L890.07 214.42L825.11 176.92L825.11 101.92zM890.07 289.42L955.02 326.92L955.02 401.92L890.07 439.42L825.11 401.92L825.11 326.92zM890.07 514.42L955.02 551.92L955.02 626.92L890.07 664.42L825.11 626.92L825.11 551.92zM825.11 851.92L890.07 889.42L890.07 964.42L825.11 1001.92L760.16 964.42L760.16 889.42zM1019.98 64.42L1084.93 101.92L1084.93 176.92L1019.98 214.42L955.02 176.92L955.02 101.92zM1019.98 289.42L1084.93 326.92L1084.93 401.92L1019.98 439.42L955.02 401.92L955.02 326.92zM955.02 626.92L1019.98 664.42L1019.98 739.42L955.02 776.92L890.07 739.42L890.07 664.42zM955.02 851.92L1019.98 889.42L1019.98 964.42L955.02 1001.92L890.07 964.42L890.07 889.42zM1084.93 -48.08L1149.88 -10.58L1149.88 64.42L1084.93 101.92L1019.98 64.42L1019.98 -10.58zM1084.93 176.92L1149.88 214.42L1149.88 289.42L1084.93 326.92L1019.98 289.42L1019.98 214.42zM1149.88 289.42L1214.84 326.92L1214.84 401.92L1149.88 439.42L1084.93 401.92L1084.93 326.92zM1084.93 626.92L1149.88 664.42L1149.88 739.42L1084.93 776.92L1019.98 739.42L1019.98 664.42zM1084.93 851.92L1149.88 889.42L1149.88 964.42L1084.93 1001.92L1019.98 964.42L1019.98 889.42zM1214.84 -48.08L1279.79 -10.58L1279.79 64.42L1214.84 101.92L1149.88 64.42L1149.88 -10.58zM1279.79 289.42L1344.74 326.92L1344.74 401.92L1279.79 439.42L1214.84 401.92L1214.84 326.92zM1214.84 401.92L1279.79 439.42L1279.79 514.42L1214.84 551.92L1149.88 514.42L1149.88 439.42zM1344.75 -48.08L1409.7 -10.58L1409.7 64.42L1344.75 101.92L1279.79 64.42L1279.79 -10.58zM1344.75 176.92L1409.7 214.42L1409.7 289.42L1344.75 326.92L1279.79 289.42L1279.79 214.42zM1409.7 289.42L1474.65 326.92L1474.65 401.92L1409.7 439.42L1344.75 401.92L1344.75 326.92zM1539.61 64.42L1604.56 101.92L1604.56 176.92L1539.61 214.42L1474.65 176.92L1474.65 101.92zM1474.65 401.92L1539.61 439.42L1539.61 514.42L1474.65 551.92L1409.7 514.42L1409.7 439.42zM1539.61 514.42L1604.56 551.92L1604.56 626.92L1539.61 664.42L1474.65 626.92L1474.65 551.92zM1474.65 626.92L1539.61 664.42L1539.61 739.42L1474.65 776.92L1409.7 739.42L1409.7 664.42zM1539.61 739.42L1604.56 776.92L1604.56 851.92L1539.61 889.42L1474.65 851.92L1474.65 776.92zM1474.65 851.92L1539.61 889.42L1539.61 964.42L1474.65 1001.92L1409.7 964.42L1409.7 889.42z" stroke="rgba(105, 16, 52, 1)" stroke-width="2"></path><path d="M38.17 -48.08 a7.5 7.5 0 1 0 15 0 a7.5 7.5 0 1 0 -15 0zM103.12 -10.58 a7.5 7.5 0 1 0 15 0 a7.5 7.5 0 1 0 -15 0zM103.12 64.42 a7.5 7.5 0 1 0 15 0 a7.5 7.5 0 1 0 -15 0zM38.17 101.92 a7.5 7.5 0 1 0 15 0 a7.5 7.5 0 1 0 -15 0zM-26.78 64.42 a7.5 7.5 0 1 0 15 0 a7.5 7.5 0 1 0 -15 0zM-26.78 -10.58 a7.5 7.5 0 1 0 15 0 a7.5 7.5 0 1 0 -15 0zM103.12 514.42 a7.5 7.5 0 1 0 15 0 a7.5 7.5 0 1 0 -15 0zM168.08 551.92 a7.5 7.5 0 1 0 15 0 a7.5 7.5 0 1 0 -15 0zM168.08 626.92 a7.5 7.5 0 1 0 15 0 a7.5 7.5 0 1 0 -15 0zM103.12 664.42 a7.5 7.5 0 1 0 15 0 a7.5 7.5 0 1 0 -15 0zM38.17 626.92 a7.5 7.5 0 1 0 15 0 a7.5 7.5 0 1 0 -15 0zM38.17 551.92 a7.5 7.5 0 1 0 15 0 a7.5 7.5 0 1 0 -15 0zM103.12 739.42 a7.5 7.5 0 1 0 15 0 a7.5 7.5 0 1 0 -15 0zM38.17 776.92 a7.5 7.5 0 1 0 15 0 a7.5 7.5 0 1 0 -15 0zM-26.78 739.42 a7.5 7.5 0 1 0 15 0 a7.5 7.5 0 1 0 -15 0zM-26.78 664.42 a7.5 7.5 0 1 0 15 0 a7.5 7.5 0 1 0 -15 0zM38.17 851.92 a7.5 7.5 0 1 0 15 0 a7.5 7.5 0 1 0 -15 0zM103.12 889.42 a7.5 7.5 0 1 0 15 0 a7.5 7.5 0 1 0 -15 0zM103.12 964.42 a7.5 7.5 0 1 0 15 0 a7.5 7.5 0 1 0 -15 0zM38.17 1001.92 a7.5 7.5 0 1 0 15 0 a7.5 7.5 0 1 0 -15 0zM-26.78 964.42 a7.5 7.5 0 1 0 15 0 a7.5 7.5 0 1 0 -15 0zM-26.78 889.42 a7.5 7.5 0 1 0 15 0 a7.5 7.5 0 1 0 -15 0zM168.08 -48.08 a7.5 7.5 0 1 0 15 0 a7.5 7.5 0 1 0 -15 0zM233.03 -10.58 a7.5 7.5 0 1 0 15 0 a7.5 7.5 0 1 0 -15 0zM233.03 64.42 a7.5 7.5 0 1 0 15 0 a7.5 7.5 0 1 0 -15 0zM168.08 101.92 a7.5 7.5 0 1 0 15 0 a7.5 7.5 0 1 0 -15 0zM297.99 101.92 a7.5 7.5 0 1 0 15 0 a7.5 7.5 0 1 0 -15 0zM297.99 176.92 a7.5 7.5 0 1 0 15 0 a7.5 7.5 0 1 0 -15 0zM233.03 214.42 a7.5 7.5 0 1 0 15 0 a7.5 7.5 0 1 0 -15 0zM168.08 176.92 a7.5 7.5 0 1 0 15 0 a7.5 7.5 0 1 0 -15 0zM233.03 289.42 a7.5 7.5 0 1 0 15 0 a7.5 7.5 0 1 0 -15 0zM168.08 326.92 a7.5 7.5 0 1 0 15 0 a7.5 7.5 0 1 0 -15 0zM103.12 289.42 a7.5 7.5 0 1 0 15 0 a7.5 7.5 0 1 0 -15 0zM103.12 214.42 a7.5 7.5 0 1 0 15 0 a7.5 7.5 0 1 0 -15 0zM297.99 326.92 a7.5 7.5 0 1 0 15 0 a7.5 7.5 0 1 0 -15 0zM297.99 401.92 a7.5 7.5 0 1 0 15 0 a7.5 7.5 0 1 0 -15 0zM233.03 439.42 a7.5 7.5 0 1 0 15 0 a7.5 7.5 0 1 0 -15 0zM168.08 401.92 a7.5 7.5 0 1 0 15 0 a7.5 7.5 0 1 0 -15 0zM233.03 514.42 a7.5 7.5 0 1 0 15 0 a7.5 7.5 0 1 0 -15 0zM297.99 551.92 a7.5 7.5 0 1 0 15 0 a7.5 7.5 0 1 0 -15 0zM297.99 626.92 a7.5 7.5 0 1 0 15 0 a7.5 7.5 0 1 0 -15 0zM233.03 664.42 a7.5 7.5 0 1 0 15 0 a7.5 7.5 0 1 0 -15 0zM233.03 739.42 a7.5 7.5 0 1 0 15 0 a7.5 7.5 0 1 0 -15 0zM297.99 776.92 a7.5 7.5 0 1 0 15 0 a7.5 7.5 0 1 0 -15 0zM297.99 851.92 a7.5 7.5 0 1 0 15 0 a7.5 7.5 0 1 0 -15 0zM233.03 889.42 a7.5 7.5 0 1 0 15 0 a7.5 7.5 0 1 0 -15 0zM168.08 851.92 a7.5 7.5 0 1 0 15 0 a7.5 7.5 0 1 0 -15 0zM168.08 776.92 a7.5 7.5 0 1 0 15 0 a7.5 7.5 0 1 0 -15 0zM362.94 64.42 a7.5 7.5 0 1 0 15 0 a7.5 7.5 0 1 0 -15 0zM427.89 101.92 a7.5 7.5 0 1 0 15 0 a7.5 7.5 0 1 0 -15 0zM427.89 176.92 a7.5 7.5 0 1 0 15 0 a7.5 7.5 0 1 0 -15 0zM362.94 214.42 a7.5 7.5 0 1 0 15 0 a7.5 7.5 0 1 0 -15 0zM362.94 289.42 a7.5 7.5 0 1 0 15 0 a7.5 7.5 0 1 0 -15 0zM362.94 439.42 a7.5 7.5 0 1 0 15 0 a7.5 7.5 0 1 0 -15 0zM362.94 514.42 a7.5 7.5 0 1 0 15 0 a7.5 7.5 0 1 0 -15 0zM362.94 739.42 a7.5 7.5 0 1 0 15 0 a7.5 7.5 0 1 0 -15 0zM427.89 776.92 a7.5 7.5 0 1 0 15 0 a7.5 7.5 0 1 0 -15 0zM427.89 851.92 a7.5 7.5 0 1 0 15 0 a7.5 7.5 0 1 0 -15 0zM362.94 889.42 a7.5 7.5 0 1 0 15 0 a7.5 7.5 0 1 0 -15 0zM427.89 -48.08 a7.5 7.5 0 1 0 15 0 a7.5 7.5 0 1 0 -15 0zM492.85 -10.58 a7.5 7.5 0 1 0 15 0 a7.5 7.5 0 1 0 -15 0zM492.85 64.42 a7.5 7.5 0 1 0 15 0 a7.5 7.5 0 1 0 -15 0zM362.94 -10.58 a7.5 7.5 0 1 0 15 0 a7.5 7.5 0 1 0 -15 0zM492.85 214.42 a7.5 7.5 0 1 0 15 0 a7.5 7.5 0 1 0 -15 0zM492.85 289.42 a7.5 7.5 0 1 0 15 0 a7.5 7.5 0 1 0 -15 0zM427.89 326.92 a7.5 7.5 0 1 0 15 0 a7.5 7.5 0 1 0 -15 0zM557.8 326.92 a7.5 7.5 0 1 0 15 0 a7.5 7.5 0 1 0 -15 0zM557.8 401.92 a7.5 7.5 0 1 0 15 0 a7.5 7.5 0 1 0 -15 0zM492.85 439.42 a7.5 7.5 0 1 0 15 0 a7.5 7.5 0 1 0 -15 0zM427.89 401.92 a7.5 7.5 0 1 0 15 0 a7.5 7.5 0 1 0 -15 0zM492.85 514.42 a7.5 7.5 0 1 0 15 0 a7.5 7.5 0 1 0 -15 0zM427.89 551.92 a7.5 7.5 0 1 0 15 0 a7.5 7.5 0 1 0 -15 0zM557.8 551.92 a7.5 7.5 0 1 0 15 0 a7.5 7.5 0 1 0 -15 0zM557.8 626.92 a7.5 7.5 0 1 0 15 0 a7.5 7.5 0 1 0 -15 0zM492.85 664.42 a7.5 7.5 0 1 0 15 0 a7.5 7.5 0 1 0 -15 0zM427.89 626.92 a7.5 7.5 0 1 0 15 0 a7.5 7.5 0 1 0 -15 0zM492.85 739.42 a7.5 7.5 0 1 0 15 0 a7.5 7.5 0 1 0 -15 0zM557.8 776.92 a7.5 7.5 0 1 0 15 0 a7.5 7.5 0 1 0 -15 0zM557.8 851.92 a7.5 7.5 0 1 0 15 0 a7.5 7.5 0 1 0 -15 0zM492.85 889.42 a7.5 7.5 0 1 0 15 0 a7.5 7.5 0 1 0 -15 0zM492.85 964.42 a7.5 7.5 0 1 0 15 0 a7.5 7.5 0 1 0 -15 0zM427.89 1001.92 a7.5 7.5 0 1 0 15 0 a7.5 7.5 0 1 0 -15 0zM362.94 964.42 a7.5 7.5 0 1 0 15 0 a7.5 7.5 0 1 0 -15 0zM622.75 64.42 a7.5 7.5 0 1 0 15 0 a7.5 7.5 0 1 0 -15 0zM687.71 101.92 a7.5 7.5 0 1 0 15 0 a7.5 7.5 0 1 0 -15 0zM687.71 176.92 a7.5 7.5 0 1 0 15 0 a7.5 7.5 0 1 0 -15 0zM622.75 214.42 a7.5 7.5 0 1 0 15 0 a7.5 7.5 0 1 0 -15 0zM557.8 176.92 a7.5 7.5 0 1 0 15 0 a7.5 7.5 0 1 0 -15 0zM557.8 101.92 a7.5 7.5 0 1 0 15 0 a7.5 7.5 0 1 0 -15 0zM622.75 289.42 a7.5 7.5 0 1 0 15 0 a7.5 7.5 0 1 0 -15 0zM687.71 326.92 a7.5 7.5 0 1 0 15 0 a7.5 7.5 0 1 0 -15 0zM687.71 401.92 a7.5 7.5 0 1 0 15 0 a7.5 7.5 0 1 0 -15 0zM622.75 439.42 a7.5 7.5 0 1 0 15 0 a7.5 7.5 0 1 0 -15 0zM622.75 514.42 a7.5 7.5 0 1 0 15 0 a7.5 7.5 0 1 0 -15 0zM622.75 664.42 a7.5 7.5 0 1 0 15 0 a7.5 7.5 0 1 0 -15 0zM622.75 739.42 a7.5 7.5 0 1 0 15 0 a7.5 7.5 0 1 0 -15 0zM687.71 776.92 a7.5 7.5 0 1 0 15 0 a7.5 7.5 0 1 0 -15 0zM687.71 851.92 a7.5 7.5 0 1 0 15 0 a7.5 7.5 0 1 0 -15 0zM622.75 889.42 a7.5 7.5 0 1 0 15 0 a7.5 7.5 0 1 0 -15 0zM687.71 -48.08 a7.5 7.5 0 1 0 15 0 a7.5 7.5 0 1 0 -15 0zM752.66 -10.58 a7.5 7.5 0 1 0 15 0 a7.5 7.5 0 1 0 -15 0zM752.66 64.42 a7.5 7.5 0 1 0 15 0 a7.5 7.5 0 1 0 -15 0zM622.75 -10.58 a7.5 7.5 0 1 0 15 0 a7.5 7.5 0 1 0 -15 0zM817.62 101.92 a7.5 7.5 0 1 0 15 0 a7.5 7.5 0 1 0 -15 0zM817.62 176.92 a7.5 7.5 0 1 0 15 0 a7.5 7.5 0 1 0 -15 0zM752.66 214.42 a7.5 7.5 0 1 0 15 0 a7.5 7.5 0 1 0 -15 0zM752.66 289.42 a7.5 7.5 0 1 0 15 0 a7.5 7.5 0 1 0 -15 0zM817.62 326.92 a7.5 7.5 0 1 0 15 0 a7.5 7.5 0 1 0 -15 0zM817.62 401.92 a7.5 7.5 0 1 0 15 0 a7.5 7.5 0 1 0 -15 0zM752.66 439.42 a7.5 7.5 0 1 0 15 0 a7.5 7.5 0 1 0 -15 0zM687.71 626.92 a7.5 7.5 0 1 0 15 0 a7.5 7.5 0 1 0 -15 0zM752.66 664.42 a7.5 7.5 0 1 0 15 0 a7.5 7.5 0 1 0 -15 0zM752.66 739.42 a7.5 7.5 0 1 0 15 0 a7.5 7.5 0 1 0 -15 0zM882.57 64.42 a7.5 7.5 0 1 0 15 0 a7.5 7.5 0 1 0 -15 0zM947.52 101.92 a7.5 7.5 0 1 0 15 0 a7.5 7.5 0 1 0 -15 0zM947.52 176.92 a7.5 7.5 0 1 0 15 0 a7.5 7.5 0 1 0 -15 0zM882.57 214.42 a7.5 7.5 0 1 0 15 0 a7.5 7.5 0 1 0 -15 0zM817.61 176.92 a7.5 7.5 0 1 0 15 0 a7.5 7.5 0 1 0 -15 0zM817.61 101.92 a7.5 7.5 0 1 0 15 0 a7.5 7.5 0 1 0 -15 0zM882.57 289.42 a7.5 7.5 0 1 0 15 0 a7.5 7.5 0 1 0 -15 0zM947.52 326.92 a7.5 7.5 0 1 0 15 0 a7.5 7.5 0 1 0 -15 0zM947.52 401.92 a7.5 7.5 0 1 0 15 0 a7.5 7.5 0 1 0 -15 0zM882.57 439.42 a7.5 7.5 0 1 0 15 0 a7.5 7.5 0 1 0 -15 0zM817.61 401.92 a7.5 7.5 0 1 0 15 0 a7.5 7.5 0 1 0 -15 0zM817.61 326.92 a7.5 7.5 0 1 0 15 0 a7.5 7.5 0 1 0 -15 0zM882.57 514.42 a7.5 7.5 0 1 0 15 0 a7.5 7.5 0 1 0 -15 0zM947.52 551.92 a7.5 7.5 0 1 0 15 0 a7.5 7.5 0 1 0 -15 0zM947.52 626.92 a7.5 7.5 0 1 0 15 0 a7.5 7.5 0 1 0 -15 0zM882.57 664.42 a7.5 7.5 0 1 0 15 0 a7.5 7.5 0 1 0 -15 0zM817.61 626.92 a7.5 7.5 0 1 0 15 0 a7.5 7.5 0 1 0 -15 0zM817.61 551.92 a7.5 7.5 0 1 0 15 0 a7.5 7.5 0 1 0 -15 0zM817.61 851.92 a7.5 7.5 0 1 0 15 0 a7.5 7.5 0 1 0 -15 0zM882.57 889.42 a7.5 7.5 0 1 0 15 0 a7.5 7.5 0 1 0 -15 0zM882.57 964.42 a7.5 7.5 0 1 0 15 0 a7.5 7.5 0 1 0 -15 0zM817.61 1001.92 a7.5 7.5 0 1 0 15 0 a7.5 7.5 0 1 0 -15 0zM752.66 964.42 a7.5 7.5 0 1 0 15 0 a7.5 7.5 0 1 0 -15 0zM752.66 889.42 a7.5 7.5 0 1 0 15 0 a7.5 7.5 0 1 0 -15 0zM1012.48 64.42 a7.5 7.5 0 1 0 15 0 a7.5 7.5 0 1 0 -15 0zM1077.43 101.92 a7.5 7.5 0 1 0 15 0 a7.5 7.5 0 1 0 -15 0zM1077.43 176.92 a7.5 7.5 0 1 0 15 0 a7.5 7.5 0 1 0 -15 0zM1012.48 214.42 a7.5 7.5 0 1 0 15 0 a7.5 7.5 0 1 0 -15 0zM1012.48 289.42 a7.5 7.5 0 1 0 15 0 a7.5 7.5 0 1 0 -15 0zM1077.43 326.92 a7.5 7.5 0 1 0 15 0 a7.5 7.5 0 1 0 -15 0zM1077.43 401.92 a7.5 7.5 0 1 0 15 0 a7.5 7.5 0 1 0 -15 0zM1012.48 439.42 a7.5 7.5 0 1 0 15 0 a7.5 7.5 0 1 0 -15 0zM1012.48 664.42 a7.5 7.5 0 1 0 15 0 a7.5 7.5 0 1 0 -15 0zM1012.48 739.42 a7.5 7.5 0 1 0 15 0 a7.5 7.5 0 1 0 -15 0zM947.52 776.92 a7.5 7.5 0 1 0 15 0 a7.5 7.5 0 1 0 -15 0zM882.57 739.42 a7.5 7.5 0 1 0 15 0 a7.5 7.5 0 1 0 -15 0zM947.52 851.92 a7.5 7.5 0 1 0 15 0 a7.5 7.5 0 1 0 -15 0zM1012.48 889.42 a7.5 7.5 0 1 0 15 0 a7.5 7.5 0 1 0 -15 0zM1012.48 964.42 a7.5 7.5 0 1 0 15 0 a7.5 7.5 0 1 0 -15 0zM947.52 1001.92 a7.5 7.5 0 1 0 15 0 a7.5 7.5 0 1 0 -15 0zM1077.43 -48.08 a7.5 7.5 0 1 0 15 0 a7.5 7.5 0 1 0 -15 0zM1142.38 -10.58 a7.5 7.5 0 1 0 15 0 a7.5 7.5 0 1 0 -15 0zM1142.38 64.42 a7.5 7.5 0 1 0 15 0 a7.5 7.5 0 1 0 -15 0zM1012.48 -10.58 a7.5 7.5 0 1 0 15 0 a7.5 7.5 0 1 0 -15 0zM1142.38 214.42 a7.5 7.5 0 1 0 15 0 a7.5 7.5 0 1 0 -15 0zM1142.38 289.42 a7.5 7.5 0 1 0 15 0 a7.5 7.5 0 1 0 -15 0zM1207.34 326.92 a7.5 7.5 0 1 0 15 0 a7.5 7.5 0 1 0 -15 0zM1207.34 401.92 a7.5 7.5 0 1 0 15 0 a7.5 7.5 0 1 0 -15 0zM1142.38 439.42 a7.5 7.5 0 1 0 15 0 a7.5 7.5 0 1 0 -15 0zM1077.43 626.92 a7.5 7.5 0 1 0 15 0 a7.5 7.5 0 1 0 -15 0zM1142.38 664.42 a7.5 7.5 0 1 0 15 0 a7.5 7.5 0 1 0 -15 0zM1142.38 739.42 a7.5 7.5 0 1 0 15 0 a7.5 7.5 0 1 0 -15 0zM1077.43 776.92 a7.5 7.5 0 1 0 15 0 a7.5 7.5 0 1 0 -15 0zM1077.43 851.92 a7.5 7.5 0 1 0 15 0 a7.5 7.5 0 1 0 -15 0zM1142.38 889.42 a7.5 7.5 0 1 0 15 0 a7.5 7.5 0 1 0 -15 0zM1142.38 964.42 a7.5 7.5 0 1 0 15 0 a7.5 7.5 0 1 0 -15 0zM1077.43 1001.92 a7.5 7.5 0 1 0 15 0 a7.5 7.5 0 1 0 -15 0zM1207.34 -48.08 a7.5 7.5 0 1 0 15 0 a7.5 7.5 0 1 0 -15 0zM1272.29 -10.58 a7.5 7.5 0 1 0 15 0 a7.5 7.5 0 1 0 -15 0zM1272.29 64.42 a7.5 7.5 0 1 0 15 0 a7.5 7.5 0 1 0 -15 0zM1207.34 101.92 a7.5 7.5 0 1 0 15 0 a7.5 7.5 0 1 0 -15 0zM1272.29 289.42 a7.5 7.5 0 1 0 15 0 a7.5 7.5 0 1 0 -15 0zM1337.24 326.92 a7.5 7.5 0 1 0 15 0 a7.5 7.5 0 1 0 -15 0zM1337.24 401.92 a7.5 7.5 0 1 0 15 0 a7.5 7.5 0 1 0 -15 0zM1272.29 439.42 a7.5 7.5 0 1 0 15 0 a7.5 7.5 0 1 0 -15 0zM1272.29 514.42 a7.5 7.5 0 1 0 15 0 a7.5 7.5 0 1 0 -15 0zM1207.34 551.92 a7.5 7.5 0 1 0 15 0 a7.5 7.5 0 1 0 -15 0zM1142.38 514.42 a7.5 7.5 0 1 0 15 0 a7.5 7.5 0 1 0 -15 0zM1337.25 -48.08 a7.5 7.5 0 1 0 15 0 a7.5 7.5 0 1 0 -15 0zM1402.2 -10.58 a7.5 7.5 0 1 0 15 0 a7.5 7.5 0 1 0 -15 0zM1402.2 64.42 a7.5 7.5 0 1 0 15 0 a7.5 7.5 0 1 0 -15 0zM1337.25 101.92 a7.5 7.5 0 1 0 15 0 a7.5 7.5 0 1 0 -15 0zM1337.25 176.92 a7.5 7.5 0 1 0 15 0 a7.5 7.5 0 1 0 -15 0zM1402.2 214.42 a7.5 7.5 0 1 0 15 0 a7.5 7.5 0 1 0 -15 0zM1402.2 289.42 a7.5 7.5 0 1 0 15 0 a7.5 7.5 0 1 0 -15 0zM1337.25 326.92 a7.5 7.5 0 1 0 15 0 a7.5 7.5 0 1 0 -15 0zM1272.29 214.42 a7.5 7.5 0 1 0 15 0 a7.5 7.5 0 1 0 -15 0zM1467.15 326.92 a7.5 7.5 0 1 0 15 0 a7.5 7.5 0 1 0 -15 0zM1467.15 401.92 a7.5 7.5 0 1 0 15 0 a7.5 7.5 0 1 0 -15 0zM1402.2 439.42 a7.5 7.5 0 1 0 15 0 a7.5 7.5 0 1 0 -15 0zM1337.25 401.92 a7.5 7.5 0 1 0 15 0 a7.5 7.5 0 1 0 -15 0zM1532.11 64.42 a7.5 7.5 0 1 0 15 0 a7.5 7.5 0 1 0 -15 0zM1597.06 101.92 a7.5 7.5 0 1 0 15 0 a7.5 7.5 0 1 0 -15 0zM1597.06 176.92 a7.5 7.5 0 1 0 15 0 a7.5 7.5 0 1 0 -15 0zM1532.11 214.42 a7.5 7.5 0 1 0 15 0 a7.5 7.5 0 1 0 -15 0zM1467.15 176.92 a7.5 7.5 0 1 0 15 0 a7.5 7.5 0 1 0 -15 0zM1467.15 101.92 a7.5 7.5 0 1 0 15 0 a7.5 7.5 0 1 0 -15 0zM1532.11 439.42 a7.5 7.5 0 1 0 15 0 a7.5 7.5 0 1 0 -15 0zM1532.11 514.42 a7.5 7.5 0 1 0 15 0 a7.5 7.5 0 1 0 -15 0zM1467.15 551.92 a7.5 7.5 0 1 0 15 0 a7.5 7.5 0 1 0 -15 0zM1402.2 514.42 a7.5 7.5 0 1 0 15 0 a7.5 7.5 0 1 0 -15 0zM1597.06 551.92 a7.5 7.5 0 1 0 15 0 a7.5 7.5 0 1 0 -15 0zM1597.06 626.92 a7.5 7.5 0 1 0 15 0 a7.5 7.5 0 1 0 -15 0zM1532.11 664.42 a7.5 7.5 0 1 0 15 0 a7.5 7.5 0 1 0 -15 0zM1467.15 626.92 a7.5 7.5 0 1 0 15 0 a7.5 7.5 0 1 0 -15 0zM1532.11 739.42 a7.5 7.5 0 1 0 15 0 a7.5 7.5 0 1 0 -15 0zM1467.15 776.92 a7.5 7.5 0 1 0 15 0 a7.5 7.5 0 1 0 -15 0zM1402.2 739.42 a7.5 7.5 0 1 0 15 0 a7.5 7.5 0 1 0 -15 0zM1402.2 664.42 a7.5 7.5 0 1 0 15 0 a7.5 7.5 0 1 0 -15 0zM1597.06 776.92 a7.5 7.5 0 1 0 15 0 a7.5 7.5 0 1 0 -15 0zM1597.06 851.92 a7.5 7.5 0 1 0 15 0 a7.5 7.5 0 1 0 -15 0zM1532.11 889.42 a7.5 7.5 0 1 0 15 0 a7.5 7.5 0 1 0 -15 0zM1467.15 851.92 a7.5 7.5 0 1 0 15 0 a7.5 7.5 0 1 0 -15 0zM1532.11 964.42 a7.5 7.5 0 1 0 15 0 a7.5 7.5 0 1 0 -15 0zM1467.15 1001.92 a7.5 7.5 0 1 0 15 0 a7.5 7.5 0 1 0 -15 0zM1402.2 964.42 a7.5 7.5 0 1 0 15 0 a7.5 7.5 0 1 0 -15 0zM1402.2 889.42 a7.5 7.5 0 1 0 15 0 a7.5 7.5 0 1 0 -15 0z" fill="rgba(105, 16, 52, 1)"></path><path d="M4.99 -23.43L48.29 1.57L48.29 51.57L4.99 76.57L-38.31 51.57L-38.31 1.57zM48.29 51.57L91.59 76.57L91.59 126.57L48.29 151.57L4.99 126.57L4.99 76.57zM48.29 201.57L91.59 226.57L91.59 276.57L48.29 301.57L4.99 276.57L4.99 226.57zM48.29 351.57L91.59 376.57L91.59 426.57L48.29 451.57L4.99 426.57L4.99 376.57zM4.99 426.57L48.29 451.57L48.29 501.57L4.99 526.57L-38.31 501.57L-38.31 451.57zM48.29 501.57L91.59 526.57L91.59 576.57L48.29 601.57L4.99 576.57L4.99 526.57zM48.29 651.57L91.59 676.57L91.59 726.57L48.29 751.57L4.99 726.57L4.99 676.57zM134.9 51.57L178.2 76.57L178.2 126.57L134.9 151.57L91.59 126.57L91.59 76.57zM91.59 126.57L134.9 151.57L134.9 201.57L91.59 226.57L48.29 201.57L48.29 151.57zM134.9 201.57L178.2 226.57L178.2 276.57L134.9 301.57L91.59 276.57L91.59 226.57zM91.59 276.57L134.9 301.57L134.9 351.57L91.59 376.57L48.29 351.57L48.29 301.57zM134.9 351.57L178.2 376.57L178.2 426.57L134.9 451.57L91.59 426.57L91.59 376.57zM134.9 651.57L178.2 676.57L178.2 726.57L134.9 751.57L91.59 726.57L91.59 676.57zM178.2 -23.43L221.5 1.57L221.5 51.57L178.2 76.57L134.9 51.57L134.9 1.57zM221.5 51.57L264.81 76.57L264.81 126.57L221.5 151.57L178.2 126.57L178.2 76.57zM178.2 276.57L221.5 301.57L221.5 351.57L178.2 376.57L134.9 351.57L134.9 301.57zM178.2 576.57L221.5 601.57L221.5 651.57L178.2 676.57L134.9 651.57L134.9 601.57zM221.5 801.57L264.81 826.57L264.81 876.57L221.5 901.57L178.2 876.57L178.2 826.57zM178.2 876.57L221.5 901.57L221.5 951.57L178.2 976.57L134.9 951.57L134.9 901.57zM308.11 51.57L351.41 76.57L351.41 126.57L308.11 151.57L264.81 126.57L264.81 76.57zM308.11 201.57L351.41 226.57L351.41 276.57L308.11 301.57L264.81 276.57L264.81 226.57zM264.81 276.57L308.11 301.57L308.11 351.57L264.81 376.57L221.5 351.57L221.5 301.57zM308.11 351.57L351.41 376.57L351.41 426.57L308.11 451.57L264.81 426.57L264.81 376.57zM308.11 501.57L351.41 526.57L351.41 576.57L308.11 601.57L264.81 576.57L264.81 526.57zM308.11 651.57L351.41 676.57L351.41 726.57L308.11 751.57L264.81 726.57L264.81 676.57zM264.81 726.57L308.11 751.57L308.11 801.57L264.81 826.57L221.5 801.57L221.5 751.57zM308.11 801.57L351.41 826.57L351.41 876.57L308.11 901.57L264.81 876.57L264.81 826.57zM351.41 -23.43L394.71 1.57L394.71 51.57L351.41 76.57L308.11 51.57L308.11 1.57zM394.71 51.57L438.02 76.57L438.02 126.57L394.71 151.57L351.41 126.57L351.41 76.57zM394.71 201.57L438.02 226.57L438.02 276.57L394.71 301.57L351.41 276.57L351.41 226.57zM351.41 426.57L394.71 451.57L394.71 501.57L351.41 526.57L308.11 501.57L308.11 451.57zM394.71 501.57L438.02 526.57L438.02 576.57L394.71 601.57L351.41 576.57L351.41 526.57zM481.32 51.57L524.62 76.57L524.62 126.57L481.32 151.57L438.02 126.57L438.02 76.57zM438.02 276.57L481.32 301.57L481.32 351.57L438.02 376.57L394.71 351.57L394.71 301.57zM481.32 351.57L524.62 376.57L524.62 426.57L481.32 451.57L438.02 426.57L438.02 376.57zM438.02 426.57L481.32 451.57L481.32 501.57L438.02 526.57L394.71 501.57L394.71 451.57zM481.32 501.57L524.62 526.57L524.62 576.57L481.32 601.57L438.02 576.57L438.02 526.57zM481.32 651.57L524.62 676.57L524.62 726.57L481.32 751.57L438.02 726.57L438.02 676.57zM567.92 201.57L611.23 226.57L611.23 276.57L567.92 301.57L524.62 276.57L524.62 226.57zM524.62 276.57L567.92 301.57L567.92 351.57L524.62 376.57L481.32 351.57L481.32 301.57zM524.62 426.57L567.92 451.57L567.92 501.57L524.62 526.57L481.32 501.57L481.32 451.57zM567.92 651.57L611.23 676.57L611.23 726.57L567.92 751.57L524.62 726.57L524.62 676.57zM524.62 726.57L567.92 751.57L567.92 801.57L524.62 826.57L481.32 801.57L481.32 751.57zM567.92 801.57L611.23 826.57L611.23 876.57L567.92 901.57L524.62 876.57L524.62 826.57zM611.23 -23.43L654.53 1.57L654.53 51.57L611.23 76.57L567.92 51.57L567.92 1.57zM611.23 726.57L654.53 751.57L654.53 801.57L611.23 826.57L567.92 801.57L567.92 751.57zM654.53 801.57L697.83 826.57L697.83 876.57L654.53 901.57L611.23 876.57L611.23 826.57zM611.23 876.57L654.53 901.57L654.53 951.57L611.23 976.57L567.92 951.57L567.92 901.57zM697.83 -23.43L741.13 1.57L741.13 51.57L697.83 76.57L654.53 51.57L654.53 1.57zM697.83 126.57L741.13 151.57L741.13 201.57L697.83 226.57L654.53 201.57L654.53 151.57zM697.83 426.57L741.13 451.57L741.13 501.57L697.83 526.57L654.53 501.57L654.53 451.57zM741.13 501.57L784.44 526.57L784.44 576.57L741.13 601.57L697.83 576.57L697.83 526.57zM697.83 726.57L741.13 751.57L741.13 801.57L697.83 826.57L654.53 801.57L654.53 751.57zM741.13 801.57L784.44 826.57L784.44 876.57L741.13 901.57L697.83 876.57L697.83 826.57zM827.74 51.57L871.04 76.57L871.04 126.57L827.74 151.57L784.44 126.57L784.44 76.57zM784.44 126.57L827.74 151.57L827.74 201.57L784.44 226.57L741.13 201.57L741.13 151.57zM827.74 501.57L871.04 526.57L871.04 576.57L827.74 601.57L784.44 576.57L784.44 526.57zM827.74 801.57L871.04 826.57L871.04 876.57L827.74 901.57L784.44 876.57L784.44 826.57zM914.34 51.57L957.65 76.57L957.65 126.57L914.34 151.57L871.04 126.57L871.04 76.57zM871.04 276.57L914.34 301.57L914.34 351.57L871.04 376.57L827.74 351.57L827.74 301.57zM914.34 351.57L957.65 376.57L957.65 426.57L914.34 451.57L871.04 426.57L871.04 376.57zM871.04 576.57L914.34 601.57L914.34 651.57L871.04 676.57L827.74 651.57L827.74 601.57zM914.34 651.57L957.65 676.57L957.65 726.57L914.34 751.57L871.04 726.57L871.04 676.57zM871.04 726.57L914.34 751.57L914.34 801.57L871.04 826.57L827.74 801.57L827.74 751.57zM914.34 801.57L957.65 826.57L957.65 876.57L914.34 901.57L871.04 876.57L871.04 826.57zM871.04 876.57L914.34 901.57L914.34 951.57L871.04 976.57L827.74 951.57L827.74 901.57zM1000.95 51.57L1044.25 76.57L1044.25 126.57L1000.95 151.57L957.65 126.57L957.65 76.57zM1000.95 201.57L1044.25 226.57L1044.25 276.57L1000.95 301.57L957.65 276.57L957.65 226.57zM957.65 276.57L1000.95 301.57L1000.95 351.57L957.65 376.57L914.34 351.57L914.34 301.57zM957.65 426.57L1000.95 451.57L1000.95 501.57L957.65 526.57L914.34 501.57L914.34 451.57zM1000.95 501.57L1044.25 526.57L1044.25 576.57L1000.95 601.57L957.65 576.57L957.65 526.57zM957.65 576.57L1000.95 601.57L1000.95 651.57L957.65 676.57L914.34 651.57L914.34 601.57zM1087.55 51.57L1130.86 76.57L1130.86 126.57L1087.55 151.57L1044.25 126.57L1044.25 76.57zM1044.25 426.57L1087.55 451.57L1087.55 501.57L1044.25 526.57L1000.95 501.57L1000.95 451.57zM1044.25 576.57L1087.55 601.57L1087.55 651.57L1044.25 676.57L1000.95 651.57L1000.95 601.57zM1174.16 51.57L1217.46 76.57L1217.46 126.57L1174.16 151.57L1130.86 126.57L1130.86 76.57zM1130.86 126.57L1174.16 151.57L1174.16 201.57L1130.86 226.57L1087.55 201.57L1087.55 151.57zM1174.16 201.57L1217.46 226.57L1217.46 276.57L1174.16 301.57L1130.86 276.57L1130.86 226.57zM1174.16 351.57L1217.46 376.57L1217.46 426.57L1174.16 451.57L1130.86 426.57L1130.86 376.57zM1174.16 501.57L1217.46 526.57L1217.46 576.57L1174.16 601.57L1130.86 576.57L1130.86 526.57zM1130.86 876.57L1174.16 901.57L1174.16 951.57L1130.86 976.57L1087.55 951.57L1087.55 901.57zM1217.46 -23.43L1260.76 1.57L1260.76 51.57L1217.46 76.57L1174.16 51.57L1174.16 1.57zM1260.76 51.57L1304.07 76.57L1304.07 126.57L1260.76 151.57L1217.46 126.57L1217.46 76.57zM1217.46 276.57L1260.76 301.57L1260.76 351.57L1217.46 376.57L1174.16 351.57L1174.16 301.57zM1217.46 576.57L1260.76 601.57L1260.76 651.57L1217.46 676.57L1174.16 651.57L1174.16 601.57zM1217.46 876.57L1260.76 901.57L1260.76 951.57L1217.46 976.57L1174.16 951.57L1174.16 901.57zM1304.07 276.57L1347.37 301.57L1347.37 351.57L1304.07 376.57L1260.76 351.57L1260.76 301.57zM1347.37 801.57L1390.67 826.57L1390.67 876.57L1347.37 901.57L1304.07 876.57L1304.07 826.57zM1304.07 876.57L1347.37 901.57L1347.37 951.57L1304.07 976.57L1260.76 951.57L1260.76 901.57zM1433.97 51.57L1477.28 76.57L1477.28 126.57L1433.97 151.57L1390.67 126.57L1390.67 76.57zM1433.97 501.57L1477.28 526.57L1477.28 576.57L1433.97 601.57L1390.67 576.57L1390.67 526.57zM1390.67 576.57L1433.97 601.57L1433.97 651.57L1390.67 676.57L1347.37 651.57L1347.37 601.57zM1390.67 726.57L1433.97 751.57L1433.97 801.57L1390.67 826.57L1347.37 801.57L1347.37 751.57z" stroke="rgba(255, 167, 129, 1)" stroke-width="2"></path></g><defs><mask id="SvgjsMask1359"><rect width="1440" height="900" fill="#ffffff"></rect></mask></defs></svg>